<?xml version="1.0" encoding="UTF-8" standalone="no"?>
<svg width="500px" height="500px" viewBox="0 0 500 500" version="1.1" xmlns="http://www.w3.org/2000/svg" xmlns:xlink="http://www.w3.org/1999/xlink" xmlns:sketch="http://www.bohemiancoding.com/sketch/ns">
    <!-- Generator: Sketch 3.2.2 (9983) - http://www.bohemiancoding.com/sketch -->
    <title>icon-lowvision</title>
    <desc>Created with Sketch.</desc>
    <defs></defs>
    <g id="Page-1" stroke="none" stroke-width="1" fill="none" fill-rule="evenodd" sketch:type="MSPage">
        <g id="icon-lowvision" sketch:type="MSArtboardGroup">
            <path d="M250,500 C388.071187,500 500,388.071187 500,250 C500,111.928813 388.071187,0 250,0 C111.928813,0 0,111.928813 0,250 C0,388.071187 111.928813,500 250,500 Z" id="base" fill="#FFFFFF" sketch:type="MSShapeGroup"></path>
            <path d="M425,250.226065 C425,250.226065 354.542205,372 249.99125,372 C145.436796,372 75,250.226065 75,250.226065 C75,250.226065 145.436796,128 249.99125,128 C354.542205,128 425,250.226065 425,250.226065 L425,250.226065 Z M335.698393,250.226065 C335.698393,203.046727 297.104279,164.405303 249.99125,164.405303 C202.878221,164.405303 164.284107,203.043222 164.284107,250.226065 C164.284107,297.412414 202.878221,336.053837 249.99125,336.053837 C297.104279,336.053837 335.698393,297.415919 335.698393,250.226065 L335.698393,250.226065 Z" id="eye" fill="#001F3F" sketch:type="MSShapeGroup"></path>
            <path d="M234.418566,265.581201 C232.616322,263.779268 228.92947,262.25256 227.596553,263.585632 L208.473221,277.809945 C207.140148,279.143484 211.116211,285.279846 212.918455,287.081623 C214.720232,288.883867 220.856594,292.859929 222.189667,291.526857 L236.414601,272.40368 C237.747518,271.071229 236.220809,267.383755 234.418566,265.581201 Z M277.810566,208.473377 L263.585632,227.596242 C262.25256,228.929159 263.779424,232.616478 265.581667,234.418721 C267.383911,236.220654 271.071229,237.747207 272.40368,236.414445 L291.527012,222.189822 C292.859929,220.856749 288.883867,214.720543 287.081623,212.918144 C285.280001,211.116211 279.143328,207.140304 277.810566,208.473377 Z M212.918455,212.918299 C211.116211,214.720698 207.140148,220.856905 208.473221,222.189977 L227.596397,236.414601 C228.92947,237.747673 232.616788,236.220809 234.41841,234.418877 C236.220809,232.616633 237.747363,228.929159 236.414445,227.596397 L222.189667,208.473377 C220.856594,207.140304 214.720232,211.116211 212.918455,212.918299 Z M257.126337,223.819099 L269.914076,204.919241 C257.260452,199.333638 242.73947,199.333638 230.085846,204.919241 L242.874207,223.819099 C247.534678,222.555337 252.4654,222.555337 257.126337,223.819099 Z M223.819099,242.874052 L204.919552,230.086002 C199.333483,242.739625 199.333483,257.260608 204.919552,269.914232 L223.819099,257.126492 C222.555337,252.465555 222.555337,247.534678 223.819099,242.874052 Z M276.181134,257.126337 L295.080681,269.914076 C300.66644,257.260452 300.66644,242.739625 295.080681,230.085846 L276.181134,242.873896 C277.445362,247.534056 277.445052,252.465555 276.181134,257.126337 Z M242.874207,276.181134 L230.085846,295.080526 C242.73947,300.66644 257.260452,300.66644 269.914076,295.080526 L257.126337,276.181134 C252.4654,277.44443 247.534678,277.44443 242.874207,276.181134 Z M265.581667,265.581201 C263.779424,267.383911 262.25256,271.071229 263.585632,272.40368 L277.810566,291.526857 C279.143328,292.859929 285.279846,288.883867 287.081468,287.081623 C288.883867,285.279846 292.859929,279.143484 291.526857,277.809945 L272.403525,263.585632 C271.071229,262.25256 267.383755,263.779268 265.581667,265.581201 Z" id="life-preserver" fill="#001F3F" sketch:type="MSShapeGroup"></path>
        </g>
    </g>
</svg>